<svg width="150" height="95" viewBox="0 0 150 95" fill="none" xmlns="http://www.w3.org/2000/svg">
<path d="M15.2173 92.479H14.5296C14.4628 92.4822 14.3968 92.4632 14.3419 92.4249C14.2869 92.3866 14.2461 92.3312 14.2258 92.2672L13.5929 90.513H9.68356L9.05065 92.2672C9.0302 92.3315 8.98909 92.3872 8.93373 92.4256C8.87837 92.4639 8.8119 92.4827 8.74476 92.479H8.0591C7.86079 92.479 7.7764 92.3646 7.84813 92.174L10.903 83.8778C10.9244 83.8136 10.9661 83.7583 11.0217 83.72C11.0773 83.6818 11.1437 83.6628 11.211 83.6659H12.0718C12.1388 83.6626 12.2051 83.6815 12.2604 83.7198C12.3157 83.7581 12.3569 83.8136 12.3777 83.8778L15.4346 92.174C15.5 92.3646 15.4156 92.479 15.2173 92.479ZM13.2068 89.4114L11.6414 85.0323L10.076 89.4114H13.2068Z" fill="black"/>
<path d="M25.7805 83.9265V92.2121C25.785 92.2482 25.7811 92.2849 25.7694 92.3193C25.7576 92.3537 25.7381 92.385 25.7125 92.4107C25.6869 92.4364 25.6558 92.456 25.6215 92.4678C25.5872 92.4797 25.5507 92.4835 25.5147 92.479H24.8818C24.8458 92.4835 24.8094 92.4797 24.7751 92.4678C24.7408 92.456 24.7096 92.4364 24.684 92.4107C24.6584 92.385 24.6389 92.3537 24.6272 92.3193C24.6154 92.2849 24.6115 92.2482 24.616 92.2121V88.4983H20.886V92.2121C20.8905 92.2482 20.8866 92.2849 20.8749 92.3193C20.8631 92.3537 20.8436 92.385 20.818 92.4107C20.7924 92.4364 20.7613 92.456 20.727 92.4678C20.6927 92.4797 20.6562 92.4835 20.6202 92.479H19.9873C19.9512 92.4834 19.9147 92.4796 19.8803 92.4677C19.846 92.4559 19.8147 92.4364 19.7889 92.4107C19.7632 92.385 19.7435 92.3538 19.7315 92.3194C19.7194 92.285 19.7153 92.2483 19.7194 92.2121V83.9265C19.7153 83.8902 19.7194 83.8535 19.7315 83.8191C19.7435 83.7847 19.7632 83.7535 19.7889 83.7278C19.8147 83.7021 19.846 83.6827 19.8803 83.6708C19.9147 83.659 19.9512 83.6551 19.9873 83.6595H20.6202C20.6562 83.6551 20.6927 83.6589 20.727 83.6707C20.7613 83.6826 20.7924 83.7021 20.818 83.7278C20.8436 83.7536 20.8631 83.7848 20.8749 83.8193C20.8866 83.8537 20.8905 83.8903 20.886 83.9265V87.3903H24.6202V83.9265C24.6158 83.8903 24.6196 83.8537 24.6314 83.8193C24.6432 83.7848 24.6626 83.7536 24.6882 83.7278C24.7139 83.7021 24.745 83.6826 24.7793 83.6707C24.8135 83.6589 24.8501 83.6551 24.886 83.6595H25.5189C25.5545 83.6562 25.5904 83.6608 25.6239 83.6731C25.6575 83.6854 25.6879 83.705 25.7129 83.7306C25.738 83.7561 25.757 83.787 25.7687 83.8208C25.7804 83.8547 25.7845 83.8908 25.7805 83.9265Z" fill="black"/>
<path d="M33.5274 89.3499C33.5274 89.4283 33.5274 89.5024 33.5274 89.5787C33.527 89.6144 33.5192 89.6497 33.5045 89.6823C33.4897 89.7148 33.4683 89.7439 33.4417 89.7676C33.415 89.7914 33.3838 89.8092 33.3499 89.8201C33.316 89.831 33.2802 89.8346 33.2448 89.8308H28.3334C28.5211 90.9918 29.3713 91.6506 30.4831 91.6506C30.787 91.6646 31.0896 91.6038 31.3646 91.4735C31.6397 91.3431 31.8788 91.1472 32.0612 90.9028C32.0966 90.8494 32.1446 90.8056 32.2009 90.7753C32.2572 90.745 32.3201 90.7291 32.384 90.7291H32.9874C33.1857 90.7291 33.2911 90.8435 33.2194 91.0066C32.7764 92.0002 31.7426 92.6421 30.4768 92.6421C28.5169 92.6421 27.2152 91.2312 27.2152 89.3351C27.2152 87.475 28.5105 86.0259 30.4641 86.0259C32.3481 86.0217 33.5274 87.5788 33.5274 89.3499ZM32.4177 88.8668C32.2511 87.6317 31.3861 87.0449 30.4473 87.0449C29.9289 87.0207 29.4208 87.1956 29.0262 87.534C28.6316 87.8724 28.3801 88.3489 28.3228 88.8668H32.4177Z" fill="black"/>
<path d="M39.5105 88.4154V92.2119C39.5146 92.2481 39.5105 92.2848 39.4984 92.3192C39.4864 92.3536 39.4667 92.3848 39.4409 92.4105C39.4152 92.4362 39.3839 92.4557 39.3496 92.4675C39.3152 92.4794 39.2786 92.4832 39.2426 92.4788H38.6983C38.6622 92.4832 38.6256 92.4794 38.5913 92.4675C38.5569 92.4557 38.5257 92.4362 38.4999 92.4105C38.4741 92.3848 38.4545 92.3536 38.4424 92.3192C38.4304 92.2848 38.4262 92.2481 38.4303 92.2119V91.8284C38.0253 92.3771 37.3755 92.6377 36.5675 92.6377C35.4262 92.6377 34.3649 91.9725 34.3649 90.6251C34.3649 89.2777 35.4198 88.6103 36.5675 88.6103C37.3692 88.6103 38.0253 88.8794 38.4303 89.3412V88.4472C38.4303 87.443 37.7974 87.0617 37.0696 87.0617C36.4261 87.0617 35.8586 87.354 35.7383 87.9472C35.6919 88.104 35.6202 88.1951 35.4599 88.1951H34.9071C34.8699 88.2 34.8321 88.1961 34.7968 88.1836C34.7614 88.171 34.7294 88.1503 34.7035 88.1231C34.6776 88.0958 34.6585 88.0628 34.6477 88.0267C34.6369 87.9907 34.6347 87.9525 34.6413 87.9155C34.7848 86.7714 35.77 86.0215 37.0696 86.0215C38.4683 86.0215 39.5105 86.8943 39.5105 88.4154ZM38.4303 90.6251C38.4303 89.9514 37.7975 89.5319 36.884 89.5319C35.9029 89.5319 35.4578 89.9938 35.4578 90.6251C35.4578 91.2564 35.9029 91.7183 36.884 91.7183C37.7911 91.7183 38.4303 91.2543 38.4303 90.6251Z" fill="black"/>
<path d="M41.0253 92.2122V83.6744C41.0212 83.6382 41.0254 83.6015 41.0374 83.5671C41.0495 83.5327 41.0691 83.5015 41.0949 83.4758C41.1207 83.4501 41.1519 83.4307 41.1863 83.4188C41.2206 83.407 41.2572 83.4031 41.2933 83.4075H41.8503C41.8863 83.4031 41.9228 83.407 41.9572 83.4188C41.9915 83.4307 42.0228 83.4501 42.0486 83.4758C42.0743 83.5015 42.094 83.5327 42.106 83.5671C42.1181 83.6015 42.1222 83.6382 42.1181 83.6744V92.2122C42.1222 92.2484 42.1181 92.2851 42.106 92.3195C42.094 92.3539 42.0743 92.3851 42.0486 92.4108C42.0228 92.4365 41.9915 92.456 41.9572 92.4678C41.9228 92.4797 41.8863 92.4835 41.8503 92.4791H41.2933C41.2572 92.4835 41.2206 92.4797 41.1863 92.4678C41.1519 92.456 41.1207 92.4365 41.0949 92.4108C41.0691 92.3851 41.0495 92.3539 41.0374 92.3195C41.0254 92.2851 41.0212 92.2484 41.0253 92.2122Z" fill="black"/>
<path d="M46.751 86.4472V86.9705C46.7555 87.0066 46.7517 87.0433 46.7399 87.0777C46.7281 87.1121 46.7086 87.1434 46.683 87.1691C46.6574 87.1948 46.6262 87.2144 46.5919 87.2262C46.5577 87.2381 46.5212 87.2419 46.4852 87.2374H45.5211V92.2118C45.5255 92.2479 45.5217 92.2846 45.5099 92.319C45.4981 92.3534 45.4787 92.3847 45.453 92.4104C45.4274 92.4361 45.3963 92.4557 45.362 92.4675C45.3277 92.4794 45.2912 92.4832 45.2553 92.4787H44.6962C44.6602 92.4832 44.6237 92.4794 44.5894 92.4675C44.5552 92.4557 44.524 92.4361 44.4984 92.4104C44.4727 92.3847 44.4533 92.3534 44.4415 92.319C44.4297 92.2846 44.4259 92.2479 44.4304 92.2118V87.2374H43.4599C43.4238 87.2418 43.3873 87.238 43.3529 87.2261C43.3186 87.2143 43.2873 87.1948 43.2615 87.1691C43.2358 87.1435 43.2161 87.1122 43.2041 87.0778C43.192 87.0434 43.1879 87.0067 43.192 86.9705V86.4472C43.1879 86.411 43.192 86.3743 43.2041 86.3399C43.2161 86.3055 43.2358 86.2743 43.2615 86.2486C43.2873 86.2229 43.3186 86.2034 43.3529 86.1916C43.3873 86.1798 43.4238 86.1759 43.4599 86.1803H44.4325V84.4304C44.428 84.3942 44.4318 84.3576 44.4436 84.3231C44.4554 84.2887 44.4748 84.2575 44.5005 84.2317C44.5261 84.206 44.5573 84.1865 44.5915 84.1746C44.6258 84.1628 44.6623 84.159 44.6983 84.1634H45.2574C45.2932 84.1594 45.3296 84.1635 45.3637 84.1755C45.3978 84.1875 45.4287 84.207 45.4542 84.2327C45.4798 84.2583 45.4993 84.2894 45.5112 84.3236C45.5231 84.3578 45.5272 84.3943 45.5232 84.4304V86.1803H46.4873C46.5231 86.1762 46.5594 86.1803 46.5934 86.1923C46.6274 86.2043 46.6582 86.2238 46.6836 86.2495C46.709 86.2752 46.7282 86.3064 46.7399 86.3406C46.7516 86.3748 46.7554 86.4113 46.751 86.4472Z" fill="black"/>
<path d="M50.7637 86.0214C51.9304 86.0214 52.8734 86.9111 52.8734 88.3899V92.2033C52.8779 92.2394 52.874 92.2761 52.8622 92.3105C52.8505 92.3449 52.831 92.3762 52.8054 92.4019C52.7798 92.4276 52.7486 92.4472 52.7143 92.459C52.68 92.4708 52.6436 92.4747 52.6076 92.4702H52.0485C52.0125 92.4747 51.976 92.4708 51.9417 92.459C51.9075 92.4472 51.8763 92.4276 51.8507 92.4019C51.8251 92.3762 51.8056 92.3449 51.7939 92.3105C51.7821 92.2761 51.7782 92.2394 51.7827 92.2033V88.4238C51.7827 87.5192 51.2299 87.0531 50.481 87.0531C49.7321 87.0531 48.9156 87.5276 48.9156 88.8856V92.2033C48.9197 92.2395 48.9156 92.2762 48.9035 92.3106C48.8915 92.345 48.8718 92.3762 48.846 92.4019C48.8202 92.4276 48.789 92.4471 48.7547 92.4589C48.7203 92.4707 48.6837 92.4746 48.6477 92.4702H48.0907C48.0546 92.4746 48.0181 92.4707 47.9837 92.4589C47.9494 92.4471 47.9181 92.4276 47.8923 92.4019C47.8666 92.3762 47.8469 92.345 47.8349 92.3106C47.8228 92.2762 47.8187 92.2395 47.8228 92.2033V83.9176C47.8187 83.8814 47.8228 83.8447 47.8349 83.8103C47.8469 83.7759 47.8666 83.7447 47.8923 83.719C47.9181 83.6933 47.9494 83.6738 47.9837 83.662C48.0181 83.6502 48.0546 83.6463 48.0907 83.6507H48.6477C48.6837 83.6463 48.7203 83.6502 48.7547 83.662C48.789 83.6738 48.8202 83.6933 48.846 83.719C48.8718 83.7447 48.8915 83.7759 48.9035 83.8103C48.9156 83.8447 48.9197 83.8814 48.9156 83.9176V86.9472C49.365 86.2607 50.0126 86.0129 50.7721 86.0129L50.7637 86.0214Z" fill="black"/>
<path d="M62.6455 83.9264V84.5005C62.6496 84.5368 62.6455 84.5735 62.6334 84.6079C62.6214 84.6423 62.6017 84.6735 62.576 84.6992C62.5502 84.7248 62.5189 84.7443 62.4846 84.7562C62.4502 84.768 62.4137 84.7718 62.3776 84.7675H58.7911V87.8436H62.2257C62.2617 87.8391 62.2982 87.843 62.3325 87.8548C62.3668 87.8666 62.3979 87.8862 62.4235 87.9119C62.4491 87.9376 62.4686 87.9689 62.4804 88.0033C62.4921 88.0378 62.496 88.0744 62.4915 88.1105V88.691C62.4959 88.7272 62.4921 88.764 62.4803 88.7984C62.4685 88.8329 62.4491 88.8643 62.4235 88.8902C62.3979 88.9161 62.3668 88.9358 62.3326 88.9479C62.2983 88.96 62.2618 88.9642 62.2257 88.9601H58.7911V92.2099C58.7952 92.2462 58.791 92.2829 58.779 92.3173C58.7669 92.3517 58.7473 92.3829 58.7215 92.4086C58.6957 92.4343 58.6645 92.4537 58.6301 92.4656C58.5958 92.4774 58.5592 92.4813 58.5232 92.4769H57.8903C57.8542 92.4813 57.8176 92.4774 57.7833 92.4656C57.7489 92.4537 57.7177 92.4343 57.692 92.4086C57.6662 92.3829 57.6465 92.3517 57.6344 92.3173C57.6224 92.2829 57.6182 92.2462 57.6223 92.2099V83.9243C57.6182 83.888 57.6224 83.8514 57.6344 83.817C57.6465 83.7826 57.6662 83.7513 57.692 83.7256C57.7177 83.7 57.7489 83.6805 57.7833 83.6686C57.8176 83.6568 57.8542 83.6529 57.8903 83.6573H62.3755C62.4119 83.6525 62.449 83.6562 62.4838 83.6679C62.5186 83.6797 62.5502 83.6994 62.5763 83.7254C62.6023 83.7513 62.6221 83.783 62.6342 83.8178C62.6462 83.8527 62.65 83.8898 62.6455 83.9264Z" fill="black"/>
<path d="M63.4051 89.3266C63.4026 88.6695 63.5943 88.0264 63.956 87.4788C64.3178 86.9312 64.8332 86.5037 65.437 86.2505C66.0409 85.9973 66.706 85.9297 67.3481 86.0564C67.9903 86.183 68.5805 86.4982 69.0441 86.962C69.5077 87.4257 69.8238 88.0173 69.9524 88.6616C70.081 89.3059 70.0163 89.974 69.7664 90.5814C69.5166 91.1887 69.0928 91.7079 68.5489 92.0733C68.005 92.4386 67.3653 92.6337 66.711 92.6337C66.2765 92.6387 65.8454 92.5568 65.4428 92.3925C65.0403 92.2283 64.6744 91.9851 64.3665 91.6772C64.0587 91.3692 63.8151 91.0027 63.65 90.5991C63.4849 90.1955 63.4017 89.7629 63.4051 89.3266ZM68.9261 89.3266C68.9228 88.8874 68.7901 88.459 68.5446 88.0954C68.2992 87.7318 67.9521 87.4493 67.5471 87.2836C67.142 87.1178 66.6972 87.0762 66.2686 87.1639C65.84 87.2517 65.4468 87.4648 65.1387 87.7766C64.8306 88.0884 64.6213 88.4847 64.5372 88.9158C64.4531 89.3468 64.4979 89.7932 64.666 90.1987C64.8342 90.6042 65.1182 90.9506 65.4821 91.1943C65.846 91.438 66.2736 91.568 66.711 91.568C67.0043 91.5718 67.2954 91.5162 67.567 91.4047C67.8386 91.2932 68.085 91.128 68.2917 90.9188C68.4984 90.7097 68.661 90.461 68.77 90.1875C68.879 89.9139 68.9321 89.6212 68.9261 89.3266Z" fill="black"/>
<path d="M70.9578 89.3265C70.9549 88.6688 71.1464 88.0251 71.5081 87.4769C71.8698 86.9287 72.3854 86.5006 72.9896 86.2469C73.5938 85.9932 74.2594 85.9253 74.9021 86.0518C75.5447 86.1783 76.1356 86.4935 76.5997 86.9574C77.0638 87.4214 77.3803 88.0133 77.5091 88.6581C77.638 89.3029 77.5733 89.9715 77.3234 90.5794C77.0734 91.1873 76.6495 91.7069 76.1052 92.0726C75.5608 92.4383 74.9207 92.6335 74.2658 92.6335C73.8312 92.6386 73.4 92.5566 72.9974 92.3924C72.5947 92.2282 72.2287 91.985 71.9207 91.6771C71.6127 91.3692 71.3689 91.0027 71.2036 90.5991C71.0382 90.1955 70.9547 89.7629 70.9578 89.3265ZM76.481 89.3265C76.4777 88.8872 76.3449 88.4588 76.0995 88.0953C75.8541 87.7317 75.507 87.4492 75.1019 87.2834C74.6969 87.1177 74.252 87.076 73.8234 87.1638C73.3948 87.2515 73.0017 87.4647 72.6936 87.7764C72.3855 88.0882 72.1762 88.4846 72.092 88.9156C72.0079 89.3467 72.0528 89.7931 72.2209 90.1985C72.3891 90.604 72.673 90.9504 73.0369 91.1941C73.4008 91.4378 73.8284 91.5679 74.2658 91.5679C74.5592 91.5716 74.8503 91.5161 75.1218 91.4045C75.3934 91.293 75.6399 91.1278 75.8465 90.9187C76.0532 90.7096 76.2159 90.4608 76.3249 90.1873C76.4339 89.9138 76.487 89.621 76.481 89.3265Z" fill="black"/>
<path d="M85.1519 83.9264V92.2121C85.156 92.2483 85.1519 92.285 85.1398 92.3194C85.1278 92.3538 85.1081 92.385 85.0823 92.4107C85.0565 92.4364 85.0253 92.4559 84.991 92.4677C84.9566 92.4795 84.9201 92.4834 84.884 92.479H84.327C84.291 92.4834 84.2544 92.4795 84.22 92.4677C84.1857 92.4559 84.1544 92.4364 84.1287 92.4107C84.1029 92.385 84.0832 92.3538 84.0712 92.3194C84.0591 92.285 84.055 92.2483 84.0591 92.2121V91.4134C83.8006 91.8026 83.4476 92.1192 83.0335 92.3335C82.6193 92.5477 82.1576 92.6525 81.692 92.6379C80.8327 92.6161 80.016 92.258 79.4159 91.6399C78.8159 91.0219 78.48 90.1929 78.48 89.3298C78.48 88.4666 78.8159 87.6376 79.4159 87.0196C80.016 86.4016 80.8327 86.0435 81.692 86.0217C82.1578 86.0073 82.6196 86.1124 83.0338 86.327C83.448 86.5417 83.8008 86.8587 84.0591 87.2483V83.9264C84.055 83.8902 84.0591 83.8535 84.0712 83.8191C84.0832 83.7847 84.1029 83.7535 84.1287 83.7278C84.1544 83.7021 84.1857 83.6826 84.22 83.6708C84.2544 83.6589 84.291 83.6551 84.327 83.6595H84.884C84.9201 83.6551 84.9566 83.6589 84.991 83.6708C85.0253 83.6826 85.0565 83.7021 85.0823 83.7278C85.1081 83.7535 85.1278 83.7847 85.1398 83.8191C85.1519 83.8535 85.156 83.8902 85.1519 83.9264ZM84.0591 89.3308C84.0557 88.889 83.9222 88.4581 83.6753 88.0923C83.4284 87.7266 83.0792 87.4425 82.6717 87.2759C82.2642 87.1092 81.8167 87.0674 81.3856 87.1558C80.9545 87.2442 80.5591 87.4588 80.2493 87.7726C79.9395 88.0864 79.7292 88.4852 79.6448 88.9188C79.5605 89.3525 79.6058 89.8015 79.7752 90.2093C79.9447 90.617 80.2305 90.9653 80.5968 91.2101C80.9631 91.455 81.3933 91.5854 81.8333 91.585C82.1288 91.5894 82.4221 91.5338 82.6957 91.4215C82.9692 91.3093 83.2173 91.1427 83.4252 90.9318C83.633 90.7209 83.7963 90.47 83.9052 90.1942C84.0142 89.9183 84.0665 89.6232 84.0591 89.3266V89.3308Z" fill="black"/>
<path d="M89.5949 88.0702C89.5949 85.528 91.5042 83.5027 94.1899 83.5027C95.0677 83.4867 95.9292 83.7424 96.6572 84.2352C97.3853 84.7279 97.9447 85.4337 98.2595 86.2568C98.2763 86.2908 98.2838 86.3287 98.281 86.3665C98.2783 86.4044 98.2654 86.4408 98.2439 86.472C98.2223 86.5032 98.1928 86.528 98.1584 86.5438C98.1241 86.5596 98.0861 86.5658 98.0485 86.5618H97.3481C97.2803 86.5633 97.2138 86.5438 97.1576 86.5058C97.1013 86.4679 97.058 86.4135 97.0337 86.35C96.7734 85.8221 96.3682 85.38 95.8657 85.0759C95.3633 84.7718 94.7847 84.6185 94.1983 84.634C92.1435 84.634 90.7637 86.1339 90.7637 88.0681C90.7637 90.0024 92.1435 91.5023 94.1983 91.5023C94.785 91.5178 95.3639 91.3643 95.8663 91.0598C96.3688 90.7553 96.774 90.3126 97.0337 89.7842C97.0578 89.7205 97.101 89.6659 97.1573 89.6279C97.2136 89.5899 97.2803 89.5705 97.3481 89.5723H98.0485C98.2321 89.5723 98.3376 89.6888 98.2764 89.8519C97.9648 90.6805 97.4057 91.392 96.6756 91.8889C95.9455 92.3858 95.0801 92.6437 94.1983 92.6272C91.5042 92.6378 89.5949 90.6083 89.5949 88.0702Z" fill="black"/>
<path d="M99.0823 89.3266C99.0798 88.6695 99.2716 88.0264 99.6333 87.4788C99.995 86.9312 100.51 86.5037 101.114 86.2505C101.718 85.9973 102.383 85.9297 103.025 86.0564C103.667 86.183 104.258 86.4982 104.721 86.962C105.185 87.4257 105.501 88.0173 105.63 88.6616C105.758 89.3059 105.693 89.974 105.444 90.5814C105.194 91.1887 104.77 91.7079 104.226 92.0733C103.682 92.4386 103.043 92.6337 102.388 92.6337C101.954 92.6387 101.523 92.5568 101.12 92.3925C100.718 92.2283 100.352 91.9851 100.044 91.6772C99.736 91.3692 99.4924 91.0027 99.3273 90.5991C99.1622 90.1955 99.0789 89.7629 99.0823 89.3266ZM104.603 89.3266C104.6 88.8874 104.467 88.459 104.222 88.0954C103.976 87.7318 103.629 87.4493 103.224 87.2836C102.819 87.1178 102.374 87.0762 101.946 87.1639C101.517 87.2517 101.124 87.4648 100.816 87.7766C100.508 88.0884 100.299 88.4847 100.214 88.9158C100.13 89.3468 100.175 89.7932 100.343 90.1987C100.511 90.6042 100.795 90.9506 101.159 91.1943C101.523 91.438 101.951 91.568 102.388 91.568C102.682 91.5718 102.973 91.5162 103.244 91.4047C103.516 91.2932 103.762 91.128 103.969 90.9188C104.176 90.7097 104.338 90.461 104.447 90.1875C104.556 89.9139 104.609 89.6212 104.603 89.3266Z" fill="black"/>
<path d="M115.122 88.2336V92.2122C115.127 92.2483 115.123 92.285 115.111 92.3194C115.099 92.3538 115.08 92.3851 115.054 92.4108C115.029 92.4366 114.998 92.4561 114.963 92.4679C114.929 92.4798 114.892 92.4836 114.856 92.4791H114.297C114.261 92.4835 114.225 92.4797 114.19 92.4678C114.156 92.456 114.125 92.4365 114.099 92.4108C114.073 92.3852 114.054 92.3539 114.042 92.3195C114.03 92.2851 114.025 92.2484 114.03 92.2122V88.2675C114.03 87.3946 113.523 87.0535 112.937 87.0535C112.35 87.0535 111.605 87.4031 111.605 88.634V92.2037C111.61 92.2398 111.606 92.2765 111.594 92.3109C111.582 92.3454 111.563 92.3766 111.537 92.4024C111.512 92.4281 111.481 92.4476 111.446 92.4595C111.412 92.4713 111.376 92.4751 111.34 92.4707H110.781C110.745 92.4751 110.708 92.4713 110.674 92.4595C110.64 92.4476 110.608 92.4281 110.583 92.4024C110.557 92.3766 110.538 92.3454 110.526 92.3109C110.514 92.2765 110.51 92.2398 110.515 92.2037V88.2675C110.515 87.3946 110.006 87.0535 109.42 87.0535C108.833 87.0535 108.089 87.4031 108.089 88.634V92.2037C108.093 92.2398 108.089 92.2765 108.077 92.3109C108.066 92.3454 108.046 92.3766 108.021 92.4024C107.995 92.4281 107.964 92.4476 107.93 92.4595C107.895 92.4713 107.859 92.4751 107.823 92.4707H107.264C107.228 92.4751 107.191 92.4713 107.157 92.4595C107.123 92.4476 107.092 92.4281 107.066 92.4024C107.04 92.3766 107.021 92.3454 107.009 92.3109C106.997 92.2765 106.993 92.2398 106.998 92.2037V86.4392C106.993 86.403 106.997 86.3664 107.009 86.332C107.021 86.2975 107.04 86.2663 107.066 86.2405C107.092 86.2148 107.123 86.1953 107.157 86.1834C107.191 86.1716 107.228 86.1678 107.264 86.1722H107.823C107.859 86.1678 107.895 86.1716 107.93 86.1834C107.964 86.1953 107.995 86.2148 108.021 86.2405C108.046 86.2663 108.066 86.2975 108.077 86.332C108.089 86.3664 108.093 86.403 108.089 86.4392V86.8629C108.264 86.5942 108.506 86.3752 108.79 86.2269C109.074 86.0785 109.391 86.0057 109.711 86.0154C110.047 86.0092 110.378 86.0985 110.666 86.2732C110.954 86.4479 111.187 86.7008 111.338 87.0027C111.523 86.689 111.789 86.4316 112.108 86.2577C112.427 86.0839 112.787 86.0002 113.15 86.0154C114.247 86.0218 115.122 86.7845 115.122 88.2336Z" fill="black"/>
<path d="M123.272 89.3266C123.282 89.7537 123.207 90.1785 123.052 90.5765C122.897 90.9744 122.665 91.3376 122.37 91.645C122.074 91.9525 121.721 92.1982 121.331 92.3679C120.94 92.5375 120.52 92.6279 120.095 92.6336C119.629 92.6482 119.168 92.5434 118.753 92.3292C118.339 92.115 117.986 91.7983 117.728 91.4091V94.7289C117.732 94.7651 117.728 94.8018 117.716 94.8362C117.704 94.8706 117.684 94.9018 117.658 94.9275C117.632 94.9532 117.601 94.9727 117.567 94.9845C117.533 94.9964 117.496 95.0002 117.46 94.9958H116.901C116.865 94.9999 116.829 94.9957 116.795 94.9837C116.76 94.9718 116.729 94.9522 116.704 94.9266C116.678 94.901 116.659 94.8699 116.647 94.8356C116.635 94.8014 116.631 94.7649 116.635 94.7289V86.4432C116.631 86.4071 116.634 86.3704 116.646 86.336C116.658 86.3016 116.677 86.2703 116.703 86.2446C116.729 86.2189 116.76 86.1993 116.794 86.1875C116.828 86.1757 116.865 86.1718 116.901 86.1763H117.46C117.496 86.1719 117.533 86.1758 117.567 86.1876C117.601 86.1994 117.632 86.2189 117.658 86.2446C117.684 86.2703 117.704 86.3015 117.716 86.3359C117.728 86.3703 117.732 86.407 117.728 86.4432V87.2441C117.986 86.8545 118.339 86.5374 118.753 86.3228C119.167 86.1082 119.629 86.0031 120.095 86.0174C120.521 86.0232 120.941 86.1136 121.331 86.2834C121.722 86.4532 122.075 86.6991 122.371 87.0068C122.666 87.3145 122.898 87.6779 123.053 88.0761C123.207 88.4742 123.282 88.8993 123.272 89.3266ZM122.181 89.3266C122.178 88.8848 122.045 88.454 121.798 88.0883C121.551 87.7227 121.202 87.4385 120.794 87.2718C120.387 87.1051 119.94 87.0632 119.509 87.1514C119.078 87.2396 118.682 87.4541 118.372 87.7676C118.063 88.0811 117.852 88.4798 117.767 88.9133C117.683 89.3468 117.728 89.7957 117.897 90.2035C118.066 90.6113 118.352 90.9597 118.718 91.2048C119.084 91.4499 119.514 91.5807 119.954 91.5807C120.249 91.5854 120.542 91.5301 120.815 91.4182C121.089 91.3064 121.337 91.1402 121.545 90.9298C121.753 90.7193 121.917 90.4688 122.026 90.1933C122.135 89.9178 122.188 89.623 122.181 89.3266Z" fill="black"/>
<path d="M129.226 88.4154V92.2119C129.23 92.2481 129.226 92.2848 129.214 92.3192C129.202 92.3536 129.182 92.3848 129.156 92.4105C129.13 92.4362 129.099 92.4557 129.065 92.4675C129.03 92.4794 128.994 92.4832 128.958 92.4788H128.413C128.377 92.4832 128.341 92.4794 128.307 92.4675C128.272 92.4557 128.241 92.4362 128.215 92.4105C128.189 92.3848 128.17 92.3536 128.158 92.3192C128.146 92.2848 128.141 92.2481 128.146 92.2119V91.8284C127.74 92.3771 127.091 92.6377 126.283 92.6377C125.141 92.6377 124.08 91.9725 124.08 90.6251C124.08 89.2777 125.135 88.6103 126.283 88.6103C127.084 88.6103 127.74 88.8794 128.146 89.3412V88.4472C128.146 87.443 127.513 87.0617 126.785 87.0617C126.141 87.0617 125.574 87.354 125.454 87.9472C125.407 88.104 125.335 88.1951 125.175 88.1951H124.622C124.585 88.2 124.547 88.1961 124.512 88.1836C124.477 88.171 124.445 88.1503 124.419 88.1231C124.393 88.0958 124.374 88.0628 124.363 88.0267C124.352 87.9907 124.35 87.9525 124.357 87.9155C124.5 86.7714 125.485 86.0215 126.785 86.0215C128.184 86.0215 129.226 86.8943 129.226 88.4154ZM128.146 90.6251C128.146 89.9514 127.513 89.5319 126.599 89.5319C125.618 89.5319 125.173 89.9938 125.173 90.6251C125.173 91.2564 125.618 91.7183 126.599 91.7183C127.506 91.7183 128.146 91.2543 128.146 90.6251Z" fill="black"/>
<path d="M133.69 86.0217C134.856 86.0217 135.8 86.9114 135.8 88.3902V92.2036C135.804 92.2397 135.8 92.2764 135.788 92.3108C135.777 92.3452 135.757 92.3765 135.731 92.4022C135.706 92.4279 135.675 92.4475 135.64 92.4593C135.606 92.4711 135.57 92.475 135.534 92.4705H134.975C134.939 92.475 134.902 92.4711 134.868 92.4593C134.834 92.4475 134.802 92.4279 134.777 92.4022C134.751 92.3765 134.732 92.3452 134.72 92.3108C134.708 92.2764 134.704 92.2397 134.709 92.2036V88.4241C134.709 87.5195 134.156 87.0534 133.407 87.0534C132.624 87.0534 131.842 87.528 131.842 88.8859V92.2036C131.846 92.2398 131.842 92.2765 131.83 92.3109C131.818 92.3453 131.798 92.3765 131.772 92.4022C131.746 92.4279 131.715 92.4474 131.681 92.4592C131.646 92.471 131.61 92.4749 131.574 92.4705H131.013C130.977 92.4749 130.94 92.471 130.906 92.4592C130.871 92.4474 130.84 92.4279 130.814 92.4022C130.788 92.3765 130.769 92.3453 130.757 92.3109C130.745 92.2765 130.741 92.2398 130.745 92.2036V86.439C130.741 86.4028 130.745 86.3661 130.757 86.3317C130.769 86.2973 130.788 86.2661 130.814 86.2404C130.84 86.2147 130.871 86.1952 130.906 86.1834C130.94 86.1715 130.977 86.1677 131.013 86.1721H131.57C131.606 86.1677 131.642 86.1715 131.677 86.1834C131.711 86.1952 131.742 86.2147 131.768 86.2404C131.794 86.2661 131.813 86.2973 131.825 86.3317C131.837 86.3661 131.842 86.4028 131.837 86.439V86.9475C132.285 86.2611 132.935 86.0132 133.694 86.0132L133.69 86.0217Z" fill="black"/>
<path d="M141.333 86.1804H141.943C142.133 86.1804 142.226 86.2969 142.154 86.4855L139.266 94.7859C139.246 94.8513 139.205 94.9079 139.149 94.9464C139.093 94.985 139.026 95.0031 138.958 94.9978H138.346C138.158 94.9978 138.063 94.8813 138.135 94.6927L138.926 92.4153L136.557 86.4833C136.483 86.299 136.557 86.1762 136.768 86.1762H137.369C137.437 86.171 137.504 86.1892 137.559 86.2277C137.615 86.2663 137.656 86.3229 137.675 86.388L139.479 90.9005L141.034 86.4007C141.051 86.3353 141.091 86.2779 141.145 86.2379C141.2 86.1978 141.266 86.1776 141.333 86.1804Z" fill="black"/>
<path d="M60.5654 0.104004H54.0739L41.4156 28.6303H48.1519L50.6688 22.5183H50.7321L52.8059 17.5058H52.7785L57.2827 6.58465L57.3059 6.63974V6.62279L66.4199 28.6303H73.2659L60.5654 0.104004Z" fill="black"/>
<path d="M37.8925 9.85107L31.7173 20.2616L31.7342 28.7358H37.9473L37.8925 9.85107Z" fill="black"/>
<path d="M38.5612 0L31.6962 11.5567L21.7701 28.2657L17.9895 21.8931L11.9114 11.8596V28.7339H5.69623V0H11.1772L21.8861 17.853L32.4304 0H37.8671H38.5612Z" fill="black"/>
<path d="M131.601 0.104004H125.106L112.447 28.6303H119.184L121.7 22.5183H121.764L123.84 17.5079H123.812L128.316 6.58677L128.34 6.64186V6.62491L137.454 28.6324H144.304L131.601 0.104004Z" fill="black"/>
<path d="M108.928 9.85107L102.753 20.2616L102.77 28.7358H108.983L108.928 9.85107Z" fill="black"/>
<path d="M109.597 0L102.73 11.5567L92.8059 28.2657L89.0253 21.8931L82.9472 11.8596V28.7339H76.7321V0H82.2131L92.9219 17.853L103.466 0H108.901H109.597Z" fill="black"/>
<path d="M0 33.7422V77.5962H150V33.7422H0ZM128.728 39.1551C130.421 39.3038 132.081 39.7081 133.654 40.3542C133.367 40.9898 131.384 44.8942 130.688 46.2183C129.849 45.8514 128.965 45.6005 128.059 45.4726C128.082 44.765 128.521 40.4389 128.728 39.1551ZM13.1624 53.8727V53.8599V71.6918H5.82492V39.6339H13.1688L13.1624 53.8727ZM27.6582 71.6918L17.4494 59.0991L17.4304 59.1161L13.4873 54.2667L27.2996 39.6339H35.5042L22.2785 53.9214L36.2806 71.6918H27.6582ZM69.4304 71.588H44.8734V52.521H52.1667V52.5613H66.8776V58.2941H52.1519V65.6645H69.4156L69.4304 71.588ZM69.4304 45.6527H44.8734V39.7398H69.4304V45.6527ZM105.833 45.6802H95.6118V71.6918H88.2278V45.6845H78.0127V39.6339H105.829L105.833 45.6802ZM126.719 72.2405C116.692 72.2405 109.255 65.2344 109.255 55.6628C109.255 46.2882 116.39 39.3796 126.105 39.0979V45.4323C120.715 45.7205 116.734 49.7944 116.734 55.6628C116.734 61.7536 121.019 65.923 126.719 65.923C131.694 65.923 135.58 62.7451 136.504 57.9H144.042C142.977 66.2746 135.989 72.2405 126.715 72.2405H126.719ZM144.16 56.0124C142.283 55.987 140.405 55.9954 138.525 56.0272C137.926 56.0385 137.327 56.0519 136.728 56.0675C136.728 55.8916 136.745 55.7158 136.745 55.54C136.744 53.8324 136.315 52.1525 135.498 50.6552C134.68 49.1579 133.501 47.8914 132.068 46.9725C132.726 46.0001 135.395 42.4219 135.962 41.5279C138.453 43.0321 140.517 45.1547 141.955 47.6913C143.393 50.228 144.157 53.0935 144.173 56.0124H144.16Z" fill="black"/>
</svg>
